<svg width="49" height="85" viewBox="0 0 49 85" xmlns="http://www.w3.org/2000/svg">
<style>
    path {
      fill: black;
      
      
    }
    @media (prefers-color-scheme: dark) {
      path {
        fill: white;
        
      }
    }
  </style>
<path fill-rule="evenodd" clip-rule="evenodd" d="M44 0H0V5H44V0ZM0.568359 26.9199V85H26.8799C33.8027 85 39.0537 83.5918 42.6318 80.7759C46.2695 77.96 48.0879 74.0586 48.0879 69.0718C48.0879 65.6694 47.0029 62.7358 44.832 60.272C42.6611 57.8081 39.5518 56.2827 35.5039 55.6958V55.6079C39.1416 54.9629 41.8984 53.4375 43.7764 51.0322C45.6533 48.6265 46.5918 45.8691 46.5918 42.7598C46.5918 37.7148 44.9199 33.8135 41.5762 31.0562C38.2324 28.2988 33.04 26.9199 26 26.9199H0.568359ZM25.8242 75.8481H12.3604V60.624H25.8242C29.1094 60.624 31.5439 61.2695 33.1279 62.5601C34.7119 63.8506 35.5039 65.728 35.5039 68.1919C35.5039 70.5972 34.7119 72.4746 33.1279 73.8242C31.5439 75.1733 29.1094 75.8481 25.8242 75.8481ZM24.416 51.2959H12.3604V36.3359H24.416C30.8105 36.3359 34.0078 38.8291 34.0078 43.8159C34.0078 48.8027 30.8105 51.2959 24.416 51.2959Z"/>
</svg>
