<svg xmlns="http://www.w3.org/2000/svg" width="23.821" height="23.821" viewBox="0 0 23.821 23.821">
  <g id="instagram-logo" opacity="1">
    <path id="Path_342" data-name="Path 342" d="M17.247,0H6.574A6.581,6.581,0,0,0,0,6.574V17.247a6.581,6.581,0,0,0,6.574,6.574H17.247a6.581,6.581,0,0,0,6.574-6.574V6.574A6.581,6.581,0,0,0,17.247,0Zm4.461,17.247a4.465,4.465,0,0,1-4.46,4.46H6.574a4.465,4.465,0,0,1-4.46-4.46V6.574a4.465,4.465,0,0,1,4.46-4.46H17.247a4.465,4.465,0,0,1,4.46,4.46V17.247Z"/>
    <path id="Path_343" data-name="Path 343" d="M47.106,40.97a6.138,6.138,0,1,0,6.138,6.138A6.145,6.145,0,0,0,47.106,40.97Zm0,10.162a4.024,4.024,0,1,1,4.025-4.024A4.029,4.029,0,0,1,47.106,51.132Z" transform="translate(-35.196 -35.197)"/>
    <path id="Path_344" data-name="Path 344" d="M120.471,28.251a1.549,1.549,0,1,0,1.1.454A1.556,1.556,0,0,0,120.471,28.251Z" transform="translate(-102.165 -24.27)"/>
  </g>
</svg>
